ffmpeg version N-121303-ga53553a3c7 Copyright (c) 2000-2025 the FFmpeg developers
  built with Apple clang version 16.0.0 (clang-1600.0.26.6)
  configuration: --disable-doc --enable-libx264 --enable-encoder=libx264 --enable-encoder=aac --enable-gpl
  libavutil      60. 13.100 / 60. 13.100
  libavcodec     62. 16.100 / 62. 16.100
  libavformat    62.  6.100 / 62.  6.100
  libavdevice    62.  2.100 / 62.  2.100
  libavfilter    11.  9.100 / 11.  9.100
  libswscale      9.  3.100 /  9.  3.100
  libswresample   6.  2.100 /  6.  2.100
[Parsed_mswitch_0 @ 0x14ce13b00] [MSwitch Filter] Initializing with 3 inputs, tube_size=2
[Parsed_mswitch_0 @ 0x14ce13b00] [MSwitch Filter] Uninitialized
[h264 @ 0x13ce047a0] non-existing PPS 0 referenced
    Last message repeated 8 times
[h264 @ 0x13ce047a0] no frame!
[mpegts @ 0x14ce13bd0] Stream #0: not enough frames to estimate rate; consider increasing probesize
[mpegts @ 0x14ce13bd0] Could not find codec parameters for stream 0 (Video: h264 ([27][0][0][0] / 0x001B), none): unspecified size
Consider increasing the value for the 'analyzeduration' (0) and 'probesize' (32) options
Input #0, mpegts, from 'udp://127.0.0.1:12350?fifo_size=10240&overrun_nonfatal=1&timeout=1000000&buffer_size=65536':
  Duration: N/A, start: 4.733333, bitrate: N/A
  Program 1 
  Stream #0:0[0x100]: Video: h264 ([27][0][0][0] / 0x001B), none, 90k tbr, 90k tbn, start 4.733333
[h264 @ 0x14ce164b0] non-existing PPS 0 referenced
    Last message repeated 8 times
[h264 @ 0x14ce164b0] no frame!
[h264 @ 0x14ce164b0] non-existing PPS 0 referenced
    Last message repeated 8 times
[h264 @ 0x14ce164b0] no frame!
[h264 @ 0x14ce164b0] non-existing PPS 0 referenced
    Last message repeated 8 times
[h264 @ 0x14ce164b0] no frame!
[h264 @ 0x14ce164b0] non-existing PPS 0 referenced
    Last message repeated 8 times
[h264 @ 0x14ce164b0] no frame!
[h264 @ 0x14ce164b0] non-existing PPS 0 referenced
    Last message repeated 8 times
[h264 @ 0x14ce164b0] no frame!
[h264 @ 0x14ce164b0] non-existing PPS 0 referenced
    Last message repeated 8 times
[h264 @ 0x14ce164b0] no frame!
[h264 @ 0x14ce164b0] non-existing PPS 0 referenced
    Last message repeated 8 times
[h264 @ 0x14ce164b0] no frame!
[h264 @ 0x14ce164b0] non-existing PPS 0 referenced
    Last message repeated 8 times
[h264 @ 0x14ce164b0] no frame!
[h264 @ 0x14ce164b0] non-existing PPS 0 referenced
    Last message repeated 8 times
[h264 @ 0x14ce164b0] no frame!
[h264 @ 0x14ce164b0] non-existing PPS 0 referenced
    Last message repeated 8 times
[h264 @ 0x14ce164b0] no frame!
[h264 @ 0x14ce164b0] non-existing PPS 0 referenced
    Last message repeated 8 times
[h264 @ 0x14ce164b0] no frame!
[h264 @ 0x14ce164b0] non-existing PPS 0 referenced
    Last message repeated 8 times
[h264 @ 0x14ce164b0] no frame!
[h264 @ 0x14ce164b0] non-existing PPS 0 referenced
    Last message repeated 8 times
[h264 @ 0x14ce164b0] no frame!
[h264 @ 0x14ce164b0] non-existing PPS 0 referenced
    Last message repeated 8 times
[h264 @ 0x14ce164b0] no frame!
[h264 @ 0x14ce164b0] non-existing PPS 0 referenced
    Last message repeated 8 times
[h264 @ 0x14ce164b0] no frame!
[h264 @ 0x14ce164b0] non-existing PPS 0 referenced
    Last message repeated 8 times
[h264 @ 0x14ce164b0] no frame!
[h264 @ 0x14ce164b0] non-existing PPS 0 referenced
    Last message repeated 8 times
[h264 @ 0x14ce164b0] no frame!
Input #1, mpegts, from 'udp://127.0.0.1:12351?fifo_size=10240&overrun_nonfatal=1&timeout=1000000&buffer_size=65536':
  Duration: N/A, start: 4.833333, bitrate: N/A
  Program 1 
    Metadata:
      service_name    : Service01
      service_provider: FFmpeg
  Stream #1:0[0x100]: Video: h264 (Constrained Baseline) ([27][0][0][0] / 0x001B), yuv420p(progressive), 1280x720 [SAR 1:1 DAR 16:9], 30 fps, 30 tbr, 90k tbn, start 4.833333
[h264 @ 0x14cf097c0] non-existing PPS 0 referenced
    Last message repeated 8 times
[h264 @ 0x14cf097c0] no frame!
[h264 @ 0x14cf097c0] non-existing PPS 0 referenced
    Last message repeated 8 times
[h264 @ 0x14cf097c0] no frame!
[h264 @ 0x14cf097c0] non-existing PPS 0 referenced
    Last message repeated 8 times
[h264 @ 0x14cf097c0] no frame!
[h264 @ 0x14cf097c0] non-existing PPS 0 referenced
    Last message repeated 8 times
[h264 @ 0x14cf097c0] no frame!
[h264 @ 0x14cf097c0] non-existing PPS 0 referenced
    Last message repeated 8 times
[h264 @ 0x14cf097c0] no frame!
[h264 @ 0x14cf097c0] non-existing PPS 0 referenced
    Last message repeated 8 times
[h264 @ 0x14cf097c0] no frame!
[h264 @ 0x14cf097c0] non-existing PPS 0 referenced
    Last message repeated 8 times
[h264 @ 0x14cf097c0] no frame!
[h264 @ 0x14cf097c0] non-existing PPS 0 referenced
    Last message repeated 8 times
[h264 @ 0x14cf097c0] no frame!
[h264 @ 0x14cf097c0] non-existing PPS 0 referenced
    Last message repeated 8 times
[h264 @ 0x14cf097c0] no frame!
[h264 @ 0x14cf097c0] non-existing PPS 0 referenced
    Last message repeated 8 times
[h264 @ 0x14cf097c0] no frame!
[h264 @ 0x14cf097c0] non-existing PPS 0 referenced
    Last message repeated 8 times
[h264 @ 0x14cf097c0] no frame!
[h264 @ 0x14cf097c0] non-existing PPS 0 referenced
    Last message repeated 8 times
[h264 @ 0x14cf097c0] no frame!
[h264 @ 0x14cf097c0] non-existing PPS 0 referenced
    Last message repeated 8 times
[h264 @ 0x14cf097c0] no frame!
[h264 @ 0x14cf097c0] non-existing PPS 0 referenced
    Last message repeated 8 times
[h264 @ 0x14cf097c0] no frame!
[h264 @ 0x14cf097c0] non-existing PPS 0 referenced
    Last message repeated 8 times
[h264 @ 0x14cf097c0] no frame!
[h264 @ 0x14cf097c0] non-existing PPS 0 referenced
    Last message repeated 8 times
[h264 @ 0x14cf097c0] no frame!
[h264 @ 0x14cf097c0] non-existing PPS 0 referenced
    Last message repeated 8 times
[h264 @ 0x14cf097c0] no frame!
[h264 @ 0x14cf097c0] non-existing PPS 0 referenced
    Last message repeated 8 times
[h264 @ 0x14cf097c0] no frame!
[h264 @ 0x14cf097c0] non-existing PPS 0 referenced
    Last message repeated 8 times
[h264 @ 0x14cf097c0] no frame!
[h264 @ 0x14cf097c0] non-existing PPS 0 referenced
    Last message repeated 8 times
[h264 @ 0x14cf097c0] no frame!
[h264 @ 0x14cf097c0] non-existing PPS 0 referenced
    Last message repeated 8 times
[h264 @ 0x14cf097c0] no frame!
[h264 @ 0x14cf097c0] non-existing PPS 0 referenced
    Last message repeated 8 times
[h264 @ 0x14cf097c0] no frame!
[h264 @ 0x14cf097c0] non-existing PPS 0 referenced
    Last message repeated 8 times
[h264 @ 0x14cf097c0] no frame!
[h264 @ 0x14cf097c0] non-existing PPS 0 referenced
    Last message repeated 8 times
[h264 @ 0x14cf097c0] no frame!
[h264 @ 0x14cf097c0] non-existing PPS 0 referenced
    Last message repeated 8 times
[h264 @ 0x14cf097c0] no frame!
[h264 @ 0x14cf097c0] non-existing PPS 0 referenced
    Last message repeated 8 times
[h264 @ 0x14cf097c0] no frame!
[h264 @ 0x14cf097c0] non-existing PPS 0 referenced
    Last message repeated 8 times
[h264 @ 0x14cf097c0] no frame!
Input #2, mpegts, from 'udp://127.0.0.1:12352?fifo_size=10240&overrun_nonfatal=1&timeout=1000000&buffer_size=65536':
  Duration: N/A, start: 10.500000, bitrate: N/A
  Program 1 
    Metadata:
      service_name    : Service01
      service_provider: FFmpeg
  Stream #2:0[0x100]: Video: h264 (Constrained Baseline) ([27][0][0][0] / 0x001B), yuv420p(progressive), 1280x720 [SAR 1:1 DAR 16:9], 30 fps, 30 tbr, 90k tbn, start 10.500000
MSwitch enabled, initializing...
Debug: sources_backup = s0=local;s1=local;s2=local
[MSwitch] Initializing native MSwitch...
[MSwitch] Parsing sources: s0=local;s1=local;s2=local
[MSwitch] Successfully parsed 3 sources
[MSwitch] Configuration: mode=graceful, ingest=hot, sources=3
[MSwitch] Active source: 0 (s0)
[MSwitch] Webhook config: enable=0, port=8099
[MSwitch] Command queue initialized
[MSwitch] [DEBUG] Auto-failover initialized: enable=1, recovery_delay=5000
[MSwitch] [DEBUG] Auto-failover enabled via command line
[MSwitch] Skipping subprocess creation for lavfi inputs
[MSwitch] Skipping UDP proxy thread for lavfi inputs
[MSwitch] MSwitch initialized with 3 sources
[MSwitch] MSwitch proxy listening on ports 12350-12352, forwarding to port 12400
[MSwitch] Interactive commands: 0-2 (switch source), m (status), ? (help)
[MSwitch] Starting MSwitch controller
[MSwitch] Health monitoring thread disabled - using immediate duplicate frame detection
[MSwitch] MSwitch controller started successfully
Stream mapping:
  Stream #0:0 (h264) -> mswitch
  Stream #1:0 (h264) -> mswitch
  Stream #2:0 (h264) -> mswitch
  fps:default -> Stream #0:0 (libx264)
Press [q] to stop, [?] for help
[h264 @ 0x14cf057a0] non-existing PPS 0 referenced
    Last message repeated 1 times
[in#0/mpegts @ 0x14ce14010] Error during demuxing: Immediate exit requested
[h264 @ 0x12e1084d0] non-existing PPS 0 referenced
    Last message repeated 7 times
[h264 @ 0x12e1084d0] no frame!
[vist#0:0/h264 @ 0x14cf048e0] [dec:h264 @ 0x12e107ea0] Error submitting packet to decoder: Invalid data found when processing input
[h264 @ 0x12e1084d0] non-existing PPS 0 referenced
    Last message repeated 1 times
[h264 @ 0x12e1084d0] no frame!
[vist#0:0/h264 @ 0x14cf048e0] [dec:h264 @ 0x12e107ea0] Error submitting packet to decoder: Invalid data found when processing input
[vist#0:0/h264 @ 0x14cf048e0] [dec:h264 @ 0x12e107ea0] Decode error rate 1 exceeds maximum 0.666667
[fc#0 @ 0x14d00dc00] Cannot determine format of input 0:0 after EOF
[fc#0 @ 0x14d00dc00] Task finished with error code: -1094995529 (Invalid data found when processing input)
[fc#0 @ 0x14d00dc00] Terminating thread with return code -1094995529 (Invalid data found when processing input)
[vost#0:0/libx264 @ 0x12e106a90] [enc:libx264 @ 0x12e1071e0] Could not open encoder before EOF
[vost#0:0/libx264 @ 0x12e106a90] Task finished with error code: -22 (Invalid argument)
[vost#0:0/libx264 @ 0x12e106a90] Terminating thread with return code -22 (Invalid argument)
[vist#0:0/h264 @ 0x14cf048e0] [dec:h264 @ 0x12e107ea0] Task finished with error code: -1145393733 (Error number -1145393733 occurred)
[vist#0:0/h264 @ 0x14cf048e0] [dec:h264 @ 0x12e107ea0] Terminating thread with return code -1145393733 (Error number -1145393733 occurred)
[out#0/mpegts @ 0x12e105f00] Nothing was written into output file, because at least one of its streams received no packets.
frame=    0 fps=0.0 q=0.0 Lsize=       0KiB time=N/A bitrate=N/A speed=N/A elapsed=0:00:00.00    
[MSwitch] Stopping MSwitch controller
[MSwitch] MSwitch controller stopped
[MSwitch] Stopping MSwitch controller
[MSwitch] MSwitch controller stopped
[MSwitch] Command queue cleaned up
[MSwitch] MSwitch cleanup completed
Exiting normally, received signal 15.
